# xmcd
#
# Track frame offsets: 
#        182
#        17527
#        45052
#        66360
#        84272
#        129362
#        147402
#        165452
#        194595
#        213257
#        229640
#
# Disc length: 3354 seconds
#
# Revision: 2
# Processed by: cddbd v1.4PL0 Copyright (c) Steve Scherf et al.
# Submitted via: ExactAudioCopy v0.95a3
#
DISCID=870d180b
DTITLE=The Hoax - Sound Like This
DYEAR=1994
DGENRE=Rock
TTITLE0=Lizard Like Me
TTITLE1=Much Too Much
TTITLE2=Scaramouche
TTITLE3=Wake Me Up
TTITLE4=Swallow My Pride
TTITLE5=Twenty Ton Weight
TTITLE6=Headless Chicken
TTITLE7=Driving Blind
TTITLE8=Head Neck
TTITLE9=Don't Bust A Valve
TTITLE10=Take The Money And Run
EXTD=
EXTT0=
EXTT1=
EXTT2=
EXTT3=
EXTT4=
EXTT5=
EXTT6=
EXTT7=
EXTT8=
EXTT9=
EXTT10=
PLAYORDER=
